<svg width="146" height="35" viewBox="0 0 146 35" fill="none" xmlns="http://www.w3.org/2000/svg">
<rect width="35" height="35" rx="11.1964" fill="url(#paint0_linear_63_94426)"/>
<path d="M7.875 11.2683L11.0664 9.625V26.4434L7.875 23.9335V11.2683Z" fill="white"/>
<path d="M27.125 11.2683L23.9336 9.625V26.4434L27.125 23.9335V11.2683Z" fill="white"/>
<path d="M11.0664 9.625L17.5 14.6148V18.6421L11.0664 15.5013V9.625Z" fill="white"/>
<path d="M23.9336 9.625L17.5 14.6148V18.6421L23.9336 15.5013V9.625Z" fill="white"/>
<path d="M11.0156 17.4766L14.359 19.8475L14.9669 23.5049L11.0156 21.1843V17.4766Z" fill="white"/>
<path d="M23.9336 17.4766L20.5902 19.8475L19.9823 23.5049L23.9336 21.1843V17.4766Z" fill="white"/>
<path d="M59.576 11.964C61.24 11.964 62.56 12.468 63.536 13.476C64.528 14.484 65.024 15.884 65.024 17.676V25.5H60.944V18.228C60.944 17.364 60.712 16.7 60.248 16.236C59.8 15.756 59.176 15.516 58.376 15.516C57.576 15.516 56.944 15.756 56.48 16.236C56.032 16.7 55.808 17.364 55.808 18.228V25.5H51.728V18.228C51.728 17.364 51.496 16.7 51.032 16.236C50.584 15.756 49.96 15.516 49.16 15.516C48.36 15.516 47.728 15.756 47.264 16.236C46.816 16.7 46.592 17.364 46.592 18.228V25.5H42.488V12.108H46.592V13.788C47.008 13.228 47.552 12.788 48.224 12.468C48.896 12.132 49.656 11.964 50.504 11.964C51.512 11.964 52.408 12.18 53.192 12.612C53.992 13.044 54.616 13.66 55.064 14.46C55.528 13.724 56.16 13.124 56.96 12.66C57.76 12.196 58.632 11.964 59.576 11.964ZM67.3182 18.78C67.3182 17.404 67.5742 16.196 68.0862 15.156C68.6142 14.116 69.3262 13.316 70.2222 12.756C71.1183 12.196 72.1183 11.916 73.2223 11.916C74.1662 11.916 74.9902 12.108 75.6942 12.492C76.4143 12.876 76.9663 13.38 77.3503 14.004V12.108H81.4543V25.5H77.3503V23.604C76.9503 24.228 76.3903 24.732 75.6703 25.116C74.9663 25.5 74.1423 25.692 73.1982 25.692C72.1102 25.692 71.1183 25.412 70.2222 24.852C69.3262 24.276 68.6142 23.468 68.0862 22.428C67.5742 21.372 67.3182 20.156 67.3182 18.78ZM77.3503 18.804C77.3503 17.78 77.0623 16.972 76.4863 16.38C75.9263 15.788 75.2383 15.492 74.4222 15.492C73.6062 15.492 72.9102 15.788 72.3343 16.38C71.7743 16.956 71.4942 17.756 71.4942 18.78C71.4942 19.804 71.7743 20.62 72.3343 21.228C72.9102 21.82 73.6062 22.116 74.4222 22.116C75.2383 22.116 75.9263 21.82 76.4863 21.228C77.0623 20.636 77.3503 19.828 77.3503 18.804ZM89.7513 11.916C90.6953 11.916 91.5193 12.108 92.2233 12.492C92.9433 12.876 93.4953 13.38 93.8793 14.004V12.108H97.9833V25.476C97.9833 26.708 97.7353 27.82 97.2393 28.812C96.7593 29.82 96.0153 30.62 95.0073 31.212C94.0153 31.804 92.7753 32.1 91.2873 32.1C89.3033 32.1 87.6953 31.628 86.4633 30.684C85.2313 29.756 84.5273 28.492 84.3513 26.892H88.4073C88.5353 27.404 88.8393 27.804 89.3193 28.092C89.7993 28.396 90.3913 28.548 91.0953 28.548C91.9433 28.548 92.6153 28.3 93.1113 27.804C93.6233 27.324 93.8793 26.548 93.8793 25.476V23.58C93.4793 24.204 92.9273 24.716 92.2233 25.116C91.5193 25.5 90.6953 25.692 89.7513 25.692C88.6473 25.692 87.6473 25.412 86.7513 24.852C85.8553 24.276 85.1433 23.468 84.6153 22.428C84.1033 21.372 83.8473 20.156 83.8473 18.78C83.8473 17.404 84.1033 16.196 84.6153 15.156C85.1433 14.116 85.8553 13.316 86.7513 12.756C87.6473 12.196 88.6473 11.916 89.7513 11.916ZM93.8793 18.804C93.8793 17.78 93.5913 16.972 93.0153 16.38C92.4553 15.788 91.7673 15.492 90.9513 15.492C90.1353 15.492 89.4393 15.788 88.8633 16.38C88.3033 16.956 88.0233 17.756 88.0233 18.78C88.0233 19.804 88.3033 20.62 88.8633 21.228C89.4393 21.82 90.1353 22.116 90.9513 22.116C91.7673 22.116 92.4553 21.82 93.0153 21.228C93.5913 20.636 93.8793 19.828 93.8793 18.804ZM109.352 11.964C110.92 11.964 112.168 12.476 113.096 13.5C114.04 14.508 114.512 15.9 114.512 17.676V25.5H110.432V18.228C110.432 17.332 110.2 16.636 109.736 16.14C109.272 15.644 108.648 15.396 107.864 15.396C107.08 15.396 106.456 15.644 105.992 16.14C105.528 16.636 105.296 17.332 105.296 18.228V25.5H101.192V12.108H105.296V13.884C105.712 13.292 106.272 12.828 106.976 12.492C107.68 12.14 108.472 11.964 109.352 11.964ZM130.828 12.108V25.5H126.724V23.676C126.308 24.268 125.74 24.748 125.02 25.116C124.316 25.468 123.532 25.644 122.668 25.644C121.644 25.644 120.74 25.42 119.956 24.972C119.172 24.508 118.564 23.844 118.132 22.98C117.7 22.116 117.484 21.1 117.484 19.932V12.108H121.564V19.38C121.564 20.276 121.796 20.972 122.26 21.468C122.724 21.964 123.348 22.212 124.132 22.212C124.932 22.212 125.564 21.964 126.028 21.468C126.492 20.972 126.724 20.276 126.724 19.38V12.108H130.828ZM139.464 25.692C138.296 25.692 137.256 25.492 136.344 25.092C135.432 24.692 134.712 24.148 134.184 23.46C133.656 22.756 133.36 21.972 133.296 21.108H137.352C137.4 21.572 137.616 21.948 138 22.236C138.384 22.524 138.856 22.668 139.416 22.668C139.928 22.668 140.32 22.572 140.592 22.38C140.88 22.172 141.024 21.908 141.024 21.588C141.024 21.204 140.824 20.924 140.424 20.748C140.024 20.556 139.376 20.348 138.48 20.124C137.52 19.9 136.72 19.668 136.08 19.428C135.44 19.172 134.888 18.78 134.424 18.252C133.96 17.708 133.728 16.98 133.728 16.068C133.728 15.3 133.936 14.604 134.352 13.98C134.784 13.34 135.408 12.836 136.224 12.468C137.056 12.1 138.04 11.916 139.176 11.916C140.856 11.916 142.176 12.332 143.136 13.164C144.112 13.996 144.672 15.1 144.816 16.476H141.024C140.96 16.012 140.752 15.644 140.4 15.372C140.064 15.1 139.616 14.964 139.056 14.964C138.576 14.964 138.208 15.06 137.952 15.252C137.696 15.428 137.568 15.676 137.568 15.996C137.568 16.38 137.768 16.668 138.168 16.86C138.584 17.052 139.224 17.244 140.088 17.436C141.08 17.692 141.888 17.948 142.512 18.204C143.136 18.444 143.68 18.844 144.144 19.404C144.624 19.948 144.872 20.684 144.888 21.612C144.888 22.396 144.664 23.1 144.216 23.724C143.784 24.332 143.152 24.812 142.32 25.164C141.504 25.516 140.552 25.692 139.464 25.692Z" fill="black"/>
<defs>
<linearGradient id="paint0_linear_63_94426" x1="17.5" y1="0" x2="17.5" y2="35" gradientUnits="userSpaceOnUse">
<stop/>
<stop offset="1" stop-color="#323232"/>
</linearGradient>
</defs>
</svg>
