<svg width="16" height="16" viewBox="0 0 16 16" fill="none" xmlns="http://www.w3.org/2000/svg">
<path d="M7.99967 13.3337H3.46634C2.7196 13.3337 2.34624 13.3337 2.06102 13.1883C1.81014 13.0605 1.60616 12.8565 1.47833 12.6056C1.33301 12.3204 1.33301 11.9471 1.33301 11.2003V4.80033C1.33301 4.05359 1.33301 3.68022 1.47833 3.395C1.60616 3.14412 1.81014 2.94015 2.06102 2.81232C2.34624 2.66699 2.7196 2.66699 3.46634 2.66699H3.73301C5.22648 2.66699 5.97322 2.66699 6.54365 2.95764C7.04541 3.2133 7.45336 3.62125 7.70903 4.12302C7.99967 4.69345 7.99967 5.44019 7.99967 6.93366M7.99967 13.3337V6.93366M7.99967 13.3337H12.533C13.2797 13.3337 13.6531 13.3337 13.9383 13.1883C14.1892 13.0605 14.3932 12.8565 14.521 12.6056C14.6663 12.3204 14.6663 11.9471 14.6663 11.2003V4.80033C14.6663 4.05359 14.6663 3.68022 14.521 3.395C14.3932 3.14412 14.1892 2.94015 13.9383 2.81232C13.6531 2.66699 13.2797 2.66699 12.533 2.66699H12.2663C10.7729 2.66699 10.0261 2.66699 9.4557 2.95764C8.95393 3.2133 8.54599 3.62125 8.29032 4.12302C7.99967 4.69345 7.99967 5.44019 7.99967 6.93366" stroke="#BBBBBB" stroke-width="0.8" stroke-linecap="round" stroke-linejoin="round"/>
</svg>
