<svg width="16" height="16" viewBox="0 0 16 16" fill="none" xmlns="http://www.w3.org/2000/svg">
<g clip-path="url(#clip0_63_94473)">
<path d="M6.13314 3.4668C5.98587 3.4668 5.86647 3.5862 5.86647 3.73346V5.0668H5.06647C4.91921 5.0668 4.7998 5.1862 4.7998 5.33346V12.2668C4.7998 12.4141 4.91921 12.5335 5.06647 12.5335H5.86647V13.6001C5.86647 13.7474 5.98587 13.8668 6.13314 13.8668C6.2804 13.8668 6.3998 13.7474 6.3998 13.6001V12.5335H7.1998C7.34707 12.5335 7.46647 12.4141 7.46647 12.2668V5.33346C7.46647 5.1862 7.34707 5.0668 7.1998 5.0668H6.3998V3.73346C6.3998 3.5862 6.2804 3.4668 6.13314 3.4668ZM6.93314 5.60013V12.0001H5.33314V5.60013H6.93314Z" fill="#BBBBBB"/>
<path d="M9.86654 2.40039C9.71927 2.40039 9.59987 2.51979 9.59987 2.66706V4.00039H8.79987C8.6526 4.00039 8.5332 4.11979 8.5332 4.26706V11.2004C8.5332 11.3477 8.6526 11.4671 8.79987 11.4671H9.59987V12.5337C9.59987 12.681 9.71927 12.8004 9.86654 12.8004C10.0138 12.8004 10.1332 12.681 10.1332 12.5337V11.4671H10.9332C11.0805 11.4671 11.1999 11.3477 11.1999 11.2004V4.26706C11.1999 4.11979 11.0805 4.00039 10.9332 4.00039H10.1332V2.66706C10.1332 2.51979 10.0138 2.40039 9.86654 2.40039ZM10.6665 4.53372V10.9337H9.06654V4.53372H10.6665Z" fill="#BBBBBB"/>
<path d="M13.5999 5.59961C13.4527 5.59961 13.3333 5.71901 13.3333 5.86628V7.19961H12.5333C12.386 7.19961 12.2666 7.31901 12.2666 7.46628V14.3996C12.2666 14.5469 12.386 14.6663 12.5333 14.6663H13.3333V15.7329C13.3333 15.8802 13.4527 15.9996 13.5999 15.9996C13.7472 15.9996 13.8666 15.8802 13.8666 15.7329V14.6663H14.6666C14.8139 14.6663 14.9333 14.5469 14.9333 14.3996V7.46628C14.9333 7.31901 14.8139 7.19961 14.6666 7.19961H13.8666V5.86628C13.8666 5.71901 13.7472 5.59961 13.5999 5.59961ZM14.3999 7.73294V14.1329H12.7999V7.73294H14.3999Z" fill="#BBBBBB"/>
<path d="M2.39974 0C2.25247 0 2.13307 0.119401 2.13307 0.266667V1.6H1.33307C1.18581 1.6 1.06641 1.7194 1.06641 1.86667V8.8C1.06641 8.94726 1.18581 9.06667 1.33307 9.06667H2.13307V10.1333C2.13307 10.2806 2.25247 10.4 2.39974 10.4C2.54701 10.4 2.66641 10.2806 2.66641 10.1333V9.06667H3.46641C3.61367 9.06667 3.73307 8.94726 3.73307 8.8V1.86667C3.73307 1.7194 3.61367 1.6 3.46641 1.6H2.66641V0.266667C2.66641 0.119401 2.54701 0 2.39974 0ZM3.19974 2.13333V8.53333H1.59974V2.13333H3.19974Z" fill="#BBBBBB"/>
</g>
<defs>
<clipPath id="clip0_63_94473">
<rect width="16" height="16" fill="white"/>
</clipPath>
</defs>
</svg>
