<svg width="16" height="16" viewBox="0 0 16 16" fill="none" xmlns="http://www.w3.org/2000/svg">
<path d="M9.25684 14H4.30176C3.47461 14 2.80176 13.3271 2.80176 12.5V3.5C2.80176 2.67285 3.47461 2 4.30176 2H11.3018C12.1289 2 12.8018 2.67285 12.8018 3.5V10.6499C12.8018 10.7836 12.8558 10.9035 12.9411 10.9932C13.0322 11.0889 13.1591 11.1499 13.3018 11.1499C13.5781 11.1499 13.8018 10.9263 13.8018 10.6499V3.5C13.8018 2.12158 12.6802 1 11.3018 1H4.30176C2.92334 1 1.80176 2.12158 1.80176 3.5V12.5C1.80176 13.8784 2.92334 15 4.30176 15H9.25684C9.5332 15 9.75684 14.7764 9.75684 14.5C9.75684 14.3663 9.70276 14.2463 9.6174 14.1566C9.52637 14.061 9.39948 14 9.25684 14Z" fill="#BBBBBB"/>
<path d="M10.8018 7.5H4.80176C4.52539 7.5 4.30176 7.72388 4.30176 8C4.30176 8.27612 4.52539 8.5 4.80176 8.5H10.8018C11.0781 8.5 11.3018 8.27612 11.3018 8C11.3018 7.72388 11.0781 7.5 10.8018 7.5Z" fill="#BBBBBB"/>
<path d="M10.8018 5H4.80176C4.52539 5 4.30176 5.22388 4.30176 5.5C4.30176 5.77612 4.52539 6 4.80176 6H10.8018C11.0781 6 11.3018 5.77612 11.3018 5.5C11.3018 5.22388 11.0781 5 10.8018 5Z" fill="#BBBBBB"/>
<path d="M10.8018 10H4.80176C4.52539 10 4.30176 10.2236 4.30176 10.5C4.30176 10.7764 4.52539 11 4.80176 11H10.8018C11.0781 11 11.3018 10.7764 11.3018 10.5C11.3018 10.2236 11.0781 10 10.8018 10Z" fill="#BBBBBB"/>
<path d="M10.5515 13.0234C10.4473 13.1276 10.4029 13.2657 10.4099 13.4021C10.416 13.5213 10.4604 13.6393 10.5515 13.7305L11.5647 14.7432C11.6623 14.8408 11.7903 14.8896 11.9182 14.8896C12.0461 14.8896 12.174 14.8408 12.2717 14.7432L14.052 12.9629C14.2473 12.7676 14.2473 12.4512 14.052 12.2559C13.8567 12.0605 13.5403 12.0605 13.3449 12.2559L11.9182 13.6826L11.2585 13.0234C11.1731 12.938 11.0635 12.8968 10.952 12.8861C10.8086 12.8724 10.6613 12.9136 10.5515 13.0234Z" fill="#BBBBBB"/>
</svg>
