<svg width="16" height="16" viewBox="0 0 16 16" fill="none" xmlns="http://www.w3.org/2000/svg">
<path d="M7.14295 9.58765H7.49198C7.62863 9.58765 7.73941 9.47687 7.73941 9.34021C7.73941 9.20355 7.62863 9.09277 7.49198 9.09277H7.14295C7.00629 9.09277 6.89551 9.20355 6.89551 9.34021C6.89551 9.47687 7.00629 9.58765 7.14295 9.58765Z" fill="#BBBBBB"/>
<path d="M8.5072 9.58765H8.85623C8.99289 9.58765 9.10367 9.47687 9.10367 9.34021C9.10367 9.20355 8.99289 9.09277 8.85623 9.09277H8.5072C8.37055 9.09277 8.25977 9.20355 8.25977 9.34021C8.25977 9.47687 8.37058 9.58765 8.5072 9.58765Z" fill="#BBBBBB"/>
<path d="M1.08858 14.1495C2.55618 14.7723 5.02477 11.7205 5.88243 10.3435H10.1168C10.9728 11.7179 13.4444 14.7723 14.9107 14.1495C16.5637 13.4482 15.8457 8.64212 15.2353 7.2038C14.5857 5.67215 12.82 4.95705 11.2867 5.60759C10.896 5.77334 10.5535 6.01599 10.2711 6.3163H8.24708V5.66971C8.24708 5.40199 8.46493 5.18415 8.73277 5.18415H10.3803C10.9401 5.18415 11.3954 4.7288 11.3954 4.16905C11.3954 3.6093 10.9401 3.15396 10.3803 3.15396H5.9908C5.7453 3.15396 5.54558 2.95412 5.54558 2.70865C5.54558 2.46318 5.7453 2.26343 5.9908 2.26343H8.36883C8.50549 2.26343 8.61627 2.15265 8.61627 2.01599C8.61627 1.87934 8.50549 1.76855 8.36883 1.76855H5.9908C5.47249 1.76855 5.05074 2.19034 5.05074 2.70862C5.05074 3.22702 5.47252 3.6488 5.9908 3.6488H10.3803C10.6671 3.6488 10.9005 3.88221 10.9005 4.16902C10.9005 4.45584 10.6671 4.68924 10.3803 4.68924H8.73274C8.19208 4.68924 7.75221 5.12902 7.75221 5.66968V6.31627H5.72824C5.44583 6.01599 5.1033 5.77334 4.71261 5.60755C3.18108 4.95768 1.41424 5.67059 0.76399 7.20377C0.153584 8.64212 -0.564416 13.4482 1.08858 14.1495ZM11.48 6.06306C12.7587 5.5209 14.2354 6.11418 14.7798 7.39712C15.3767 8.8039 15.8821 13.1998 14.7173 13.6941C13.6501 14.147 11.2013 11.3137 10.3404 9.75452C9.4669 8.1609 10.2001 6.60593 11.48 6.06306ZM9.89487 6.81115C9.35102 7.69649 9.2813 8.79059 9.8294 9.84859H6.16986C6.72193 8.77937 6.63861 7.68077 6.1044 6.81115H9.89487ZM1.21943 7.39712C1.75971 6.1239 3.23077 5.51656 4.51927 6.06306C5.77196 6.59452 6.55077 8.13146 5.65593 9.75984C4.79258 11.3201 2.34899 14.146 1.2819 13.694C0.117084 13.1998 0.622459 8.8039 1.21943 7.39712Z" fill="#BBBBBB"/>
<path d="M2.76739 10.1907C3.00902 10.2933 3.26008 10.3418 3.50727 10.3418C4.24786 10.3418 4.95342 9.90644 5.2603 9.183C5.66939 8.21888 5.21692 7.10135 4.25186 6.69191C3.28702 6.28269 2.17046 6.73469 1.76149 7.69854C1.35202 8.66372 1.80339 9.78163 2.76739 10.1907ZM2.21696 7.89182C2.51861 7.18122 3.34308 6.8441 4.05855 7.14735C4.77246 7.45022 5.10724 8.27672 4.80483 8.98966C4.50196 9.70344 3.67471 10.0382 2.96071 9.73522C2.24774 9.43272 1.91417 8.60572 2.21696 7.89182Z" fill="#BBBBBB"/>
<path d="M2.94959 8.68947H2.94984L3.26352 8.68909L3.26396 9.00284C3.26409 9.13938 3.37487 9.24991 3.5114 9.24991H3.51177C3.64843 9.24978 3.75896 9.13875 3.75884 9.00212L3.7584 8.6885L4.07209 8.68812C4.20874 8.688 4.3194 8.57709 4.31927 8.44044C4.31915 8.30378 4.20837 8.19325 4.07184 8.19325C4.07171 8.19325 4.07159 8.19325 4.07159 8.19325L3.75777 8.19363L3.75734 7.87988C3.75721 7.74334 3.64643 7.63281 3.5099 7.63281C3.50977 7.63281 3.50965 7.63281 3.50952 7.63281C3.37287 7.63294 3.26234 7.74397 3.26246 7.88059L3.2629 8.19422L2.94934 8.19459C2.81259 8.19472 2.70202 8.30563 2.70215 8.44228C2.70227 8.57894 2.81305 8.68947 2.94959 8.68947Z" fill="#BBBBBB"/>
<path d="M13.2325 10.1906C14.1965 9.78149 14.6479 8.66359 14.2384 7.6984C13.8294 6.7344 12.7125 6.28293 11.748 6.69177C10.7829 7.10121 10.3305 8.21877 10.7396 9.18287C11.1485 10.1466 12.266 10.6006 13.2325 10.1906ZM11.9414 7.14721C12.654 6.84506 13.4804 7.17874 13.7829 7.89168C14.0857 8.60559 13.7521 9.43256 13.0392 9.73509C12.3255 10.0377 11.4981 9.70356 11.1951 8.98952C10.8927 8.27662 11.2274 7.45012 11.9414 7.14721Z" fill="#BBBBBB"/>
<path d="M12.4886 9.24976H12.4901C12.6267 9.24976 12.7368 9.13898 12.7368 9.00232C12.7368 8.86566 12.6253 8.75488 12.4886 8.75488C12.352 8.75488 12.2412 8.86566 12.2412 9.00232C12.2412 9.13898 12.352 9.24976 12.4886 9.24976Z" fill="#BBBBBB"/>
<path d="M12.4886 8.12769H12.4901C12.6267 8.12769 12.7368 8.01691 12.7368 7.88025C12.7368 7.74359 12.6253 7.63281 12.4886 7.63281C12.352 7.63281 12.2412 7.74359 12.2412 7.88025C12.2412 8.01691 12.352 8.12769 12.4886 8.12769Z" fill="#BBBBBB"/>
<path d="M11.9281 8.68883C12.0648 8.68883 12.1755 8.57742 12.1755 8.4408C12.1755 8.30414 12.0648 8.19336 11.9281 8.19336C11.7914 8.19336 11.6807 8.30414 11.6807 8.4408V8.44214C11.6807 8.57877 11.7914 8.68883 11.9281 8.68883Z" fill="#BBBBBB"/>
<path d="M13.0502 8.68883C13.1868 8.68883 13.2976 8.57742 13.2976 8.4408C13.2976 8.30414 13.1868 8.19336 13.0502 8.19336C12.9135 8.19336 12.8027 8.30414 12.8027 8.4408V8.44214C12.8027 8.57877 12.9135 8.68883 13.0502 8.68883Z" fill="#BBBBBB"/>
</svg>
