<svg width="16" height="16" viewBox="0 0 16 16" fill="none" xmlns="http://www.w3.org/2000/svg">
<g clip-path="url(#clip0_63_94466)">
<path d="M1.80244 15.2586C0.911969 15.2586 0.1875 14.5341 0.1875 13.6437V12.7754C0.1875 11.8849 0.911937 11.1605 1.80241 11.1605C2.69287 11.1605 3.41731 11.8849 3.41731 12.7754V13.6437C3.41731 14.5341 2.69287 15.2586 1.80244 15.2586ZM1.80244 11.7855C1.25659 11.7855 0.812531 12.2296 0.812531 12.7754V13.6437C0.812531 14.1895 1.25659 14.6336 1.80244 14.6336C2.34828 14.6336 2.79234 14.1895 2.79234 13.6437V12.7754C2.79234 12.2296 2.34825 11.7855 1.80244 11.7855ZM5.93419 15.2586C5.04372 15.2586 4.31928 14.5341 4.31928 13.6437V9.30227C4.31928 8.41184 5.04372 7.6874 5.93416 7.6874C6.82459 7.6874 7.54906 8.41184 7.54906 9.30227V13.6437C7.54906 14.5341 6.82463 15.2586 5.93419 15.2586ZM5.93419 8.31243C5.38837 8.31243 4.94431 8.75649 4.94431 9.30231V13.6437C4.94431 14.1896 5.38837 14.6336 5.93419 14.6336C6.48 14.6336 6.92409 14.1896 6.92409 13.6437V9.30231C6.92409 8.75649 6.48003 8.31243 5.93422 8.31243H5.93419ZM10.0659 15.2586C9.17547 15.2586 8.45103 14.5341 8.45103 13.6437V5.82921C8.45103 4.93877 9.17547 4.2143 10.0659 4.2143C10.9564 4.2143 11.6808 4.93877 11.6808 5.82921V13.6437C11.6808 14.5341 10.9564 15.2586 10.0659 15.2586ZM10.0659 4.8393C9.52009 4.8393 9.07603 5.28337 9.07603 5.82921V13.6437C9.07603 14.1895 9.52009 14.6336 10.0659 14.6336C10.6118 14.6336 11.0558 14.1895 11.0558 13.6437V5.82921C11.0558 5.28337 10.6118 4.8393 10.0659 4.8393ZM14.1977 15.2586C13.3072 15.2586 12.5828 14.5341 12.5828 13.6437V2.35615C12.5828 1.46568 13.3072 0.741211 14.1977 0.741211C15.0882 0.741211 15.8126 1.46568 15.8126 2.35615V13.6437C15.8126 14.5341 15.0882 15.2586 14.1977 15.2586ZM14.1977 1.36621C13.6518 1.36621 13.2078 1.8103 13.2078 2.35615V13.6437C13.2078 14.1895 13.6518 14.6336 14.1977 14.6336C14.7435 14.6336 15.1876 14.1895 15.1876 13.6437V2.35615C15.1876 1.8103 14.7435 1.36621 14.1977 1.36621Z" fill="#BBBBBB"/>
</g>
<defs>
<clipPath id="clip0_63_94466">
<rect width="16" height="16" fill="white"/>
</clipPath>
</defs>
</svg>
