<svg width="16" height="16" viewBox="0 0 16 16" fill="none" xmlns="http://www.w3.org/2000/svg">
<path d="M9.60887 5.39211L8.12717 6.24878L3.63399 3.6569L8.12717 1.22382L8.56425 1.46713L13.7305 4.25861L14.8261 3.62776L8.11989 0L1.42383 3.62339L8.12717 7.493L10.687 6.0113L9.60887 5.39211Z" fill="#BBBBBB"/>
<path d="M5.19159 7.82434L6.7068 8.70141V14.0702L2.07813 11.2248V4.78227L1 4.16016V11.828L7.78348 16.0006V8.07785L5.19159 6.58158V7.82434Z" fill="#BBBBBB"/>
<path d="M14.4246 4.6278L8.45703 8.0749V11.1009L9.5337 10.4788V8.69992L14.1624 6.02791V11.2277L9.5337 14.0702L8.45703 14.7331V15.9977L15.2405 11.825V4.1543L14.4246 4.6278Z" fill="#BBBBBB"/>
</svg>
