<svg width="16" height="16" viewBox="0 0 16 16" fill="none" xmlns="http://www.w3.org/2000/svg">
<g clip-path="url(#clip0_523_3774)">
<path d="M15.2987 4.82413L13.0987 1.89084C13.0293 1.79852 12.9205 1.74425 12.805 1.74414H3.2719C3.15642 1.74414 3.04777 1.79852 2.9785 1.89084L0.778589 4.82413C0.681686 4.95304 0.680455 5.13017 0.77568 5.26042L7.74234 14.7937C7.86173 14.9572 8.09112 14.993 8.25461 14.8736C8.28527 14.8512 8.31212 14.8242 8.3345 14.7937L15.3007 5.26042C15.3962 5.1304 15.3954 4.95315 15.2987 4.82413ZM1.80525 5.4107H4.47726L6.89225 12.3872L1.79194 5.40802C1.79664 5.40824 1.80055 5.4107 1.80525 5.4107ZM9.64516 2.47741L10.7455 4.67743H5.33183L6.43179 2.47741H9.64516ZM10.8237 5.4107L8.03842 13.4561L5.25361 5.4107H10.8237ZM11.5996 5.4107H14.283L9.1847 12.3872L11.5996 5.4107ZM14.2717 4.67743H11.5651L10.4651 2.47741H12.6218L14.2717 4.67743ZM3.45519 2.47741H5.6118L4.51184 4.67743H1.80525L3.45519 2.47741Z" fill="#BBBBBB"/>
</g>
<defs>
<clipPath id="clip0_523_3774">
<rect width="14.6667" height="14.6667" fill="white" transform="translate(0.733398 1)"/>
</clipPath>
</defs>
</svg>
