<svg width="16" height="16" viewBox="0 0 16 16" fill="none" xmlns="http://www.w3.org/2000/svg">
<path fill-rule="evenodd" clip-rule="evenodd" d="M4.48 5H11.52C13.442 5 15 6.55805 15 8.48C15 10.402 13.442 11.96 11.52 11.96H8.24096L7.20011 12.6063L7.72838 11.96H4.48C2.55805 11.96 1 10.402 1 8.48C1 6.55805 2.55805 5 4.48 5ZM0 8.48C0 6.00576 2.00576 4 4.48 4H11.52C13.9942 4 16 6.00576 16 8.48C16 10.9542 13.9942 12.96 11.52 12.96H4.48C2.00577 12.96 0 10.9542 0 8.48ZM5.19997 8.47998C5.19997 9.02257 4.75226 9.46243 4.19997 9.46243C3.64769 9.46243 3.19997 9.02257 3.19997 8.47998C3.19997 7.93738 3.64769 7.49752 4.19997 7.49752C4.75226 7.49752 5.19997 7.93738 5.19997 8.47998ZM11.7999 9.46243C12.3522 9.46243 12.7999 9.02257 12.7999 8.47998C12.7999 7.93738 12.3522 7.49752 11.7999 7.49752C11.2476 7.49752 10.7999 7.93738 10.7999 8.47998C10.7999 9.02257 11.2476 9.46243 11.7999 9.46243Z" fill="#BBBBBB"/>
</svg>
