<svg width="17" height="16" viewBox="0 0 17 16" fill="none" xmlns="http://www.w3.org/2000/svg">
<path d="M5.53153 6.39884C5.50282 6.40111 5.46065 6.40336 5.40492 6.40556C5.3447 6.40794 5.30235 6.40914 5.27795 6.40914C4.39457 6.40914 3.5936 6.04983 3.01355 5.46971C2.43349 4.88959 2.07422 4.08853 2.07422 3.20506C2.07422 2.32203 2.43344 1.52123 3.01341 0.941005C3.59428 0.359858 4.39541 0 5.27795 0C5.89827 0 6.47846 0.177712 6.97029 0.48497C7.47729 0.801691 7.89003 1.25741 8.15539 1.79889L7.54133 2.0992C7.33339 1.67488 7.00842 1.31682 6.60828 1.06685C6.22253 0.825857 5.76651 0.686467 5.27795 0.686467C4.58313 0.686467 3.95382 0.968388 3.49876 1.42366C3.04299 1.87965 2.76069 2.50968 2.76069 3.20506C2.76069 3.89907 3.04304 4.52846 3.4989 4.98435C3.95477 5.44027 4.58407 5.72266 5.27795 5.72266C5.3296 5.72266 5.36302 5.72235 5.37812 5.72176C5.39822 5.72097 5.43158 5.71872 5.47789 5.71504L5.53153 6.39883L5.53153 6.39884Z" fill="#BBBBBB"/>
<path d="M6.00774 7.56634C5.86783 7.60201 5.72484 7.62904 5.57944 7.64717C5.4355 7.66509 5.29008 7.6742 5.1438 7.6742C4.66379 7.6742 4.19909 7.57745 3.77044 7.39318C3.39305 7.23092 3.04398 7.00018 2.73746 6.70733C2.20865 7.03991 1.76686 7.47874 1.42629 8.00263C1.05445 8.5746 0.801677 9.2506 0.686129 10.0034L0.684787 10.0047L0.675729 10.0629L0 9.9583L0.00881688 9.90165L0.00771477 9.90148C0.137996 9.05272 0.426518 8.28512 0.852465 7.6299C1.28126 6.97032 1.84789 6.42718 2.53138 6.03198L2.53407 6.03064L2.62534 5.97878L2.85791 5.84668L3.04231 6.04045L3.11387 6.11565C3.38185 6.39655 3.69654 6.61482 4.04126 6.76303C4.384 6.91038 4.75703 6.98773 5.1438 6.98773C5.2633 6.98773 5.38098 6.98043 5.49631 6.96607C5.61204 6.95165 5.72638 6.92999 5.8388 6.90133L6.00774 7.56634Z" fill="#BBBBBB"/>
<path d="M10.0875 10.0394C8.99229 10.0394 7.99916 9.59386 7.27992 8.87456C6.5607 8.15526 6.11523 7.16207 6.11523 6.06668C6.11523 4.97159 6.56064 3.9786 7.27975 3.25919C7.99981 2.53883 8.99307 2.09277 10.0876 2.09277C11.1829 2.09277 12.1761 2.53823 12.8954 3.25743C13.6147 3.97662 14.0602 4.96972 14.0602 6.06499C14.0602 7.15956 13.6146 8.15287 12.8952 8.87262C12.1752 9.593 11.182 10.0394 10.0875 10.0394ZM7.76527 8.38921C8.36031 8.98432 9.18177 9.35291 10.0875 9.35291C10.9942 9.35291 11.8156 8.98453 12.4099 8.38996C13.0051 7.79446 13.3737 6.97196 13.3737 6.06499C13.3737 5.15923 13.0052 4.33779 12.4101 3.74278C11.815 3.14779 10.9935 2.77925 10.0875 2.77925C9.1808 2.77925 8.35934 3.14737 7.7651 3.74186C7.17019 4.33703 6.80171 5.15926 6.80171 6.06669C6.80171 6.9726 7.17025 7.79414 7.76527 8.38921Z" fill="#BBBBBB"/>
<path d="M7.17161 15.314H15.8031C15.8109 14.2571 15.6173 13.2808 15.1769 12.427C14.7473 11.5941 14.0785 10.8715 13.1274 10.2971C12.7345 10.6845 12.2829 10.9881 11.7928 11.1988C11.2605 11.4276 10.6832 11.5478 10.0866 11.5478C9.49018 11.5478 8.91299 11.4276 8.38072 11.1988C7.89062 10.9881 7.43902 10.6845 7.04608 10.2971C6.86559 10.4061 6.69603 10.5199 6.53703 10.6382C6.34221 10.7831 6.16144 10.9361 5.99416 11.0966L5.51953 10.6033C5.70657 10.4238 5.90967 10.252 6.12944 10.0885C6.34465 9.9284 6.57416 9.77742 6.81845 9.63619L6.82114 9.63485L6.93685 9.56895L7.1692 9.43661L7.35382 9.63062L7.44462 9.72603C7.79352 10.0917 8.20306 10.3758 8.65154 10.5686C9.09791 10.7606 9.58345 10.8613 10.0866 10.8613C10.59 10.8613 11.0756 10.7606 11.522 10.5686C11.9705 10.3758 12.38 10.0917 12.7289 9.72603L12.7316 9.72336L12.8242 9.62794L13.0099 9.43652L13.2411 9.57029L13.3551 9.63619C14.4873 10.2901 15.2796 11.1322 15.7856 12.1132C16.329 13.1667 16.5371 14.3728 16.4782 15.672L16.4632 16.0005H16.1363H7.1716L7.17161 15.314Z" fill="#BBBBBB"/>
<path d="M3.13993 9.95681L1.48259 11.5398H2.06229H2.35758L2.4015 11.8334C2.5512 12.8343 2.96741 13.5736 3.52968 14.1111C3.87616 14.4423 4.27987 14.6999 4.71273 14.897C4.56011 14.6914 4.42797 14.4728 4.31565 14.2401C3.99185 13.5695 3.83738 12.7915 3.83738 11.883V11.5398H4.18062H4.79583L3.13993 9.95681ZM0.391609 11.635L2.90405 9.23526L3.14014 9.00977L3.376 9.23526L5.88628 11.635L5.65031 12.2263H4.53225C4.56523 12.8847 4.69594 13.4528 4.9324 13.9425C5.20577 14.5087 5.625 14.9793 6.20265 15.3736L5.94523 15.993C4.90371 15.7936 3.85852 15.3727 3.05773 14.6072C2.44762 14.0239 1.98352 13.2473 1.77497 12.2263H0.627575L0.391609 11.635Z" fill="#BBBBBB"/>
</svg>
