<svg width="16" height="16" viewBox="0 0 16 16" fill="none" xmlns="http://www.w3.org/2000/svg">
<path d="M14.6663 11.3333V8.66667C14.6663 4.98477 11.6816 2 7.99967 2C4.31778 2 1.33301 4.98477 1.33301 8.66667V11.3333M4.99967 14C4.0792 14 3.33301 13.2538 3.33301 12.3333V10.3333C3.33301 9.41286 4.0792 8.66667 4.99967 8.66667C5.92015 8.66667 6.66634 9.41286 6.66634 10.3333V12.3333C6.66634 13.2538 5.92015 14 4.99967 14ZM10.9997 14C10.0792 14 9.33301 13.2538 9.33301 12.3333V10.3333C9.33301 9.41286 10.0792 8.66667 10.9997 8.66667C11.9201 8.66667 12.6663 9.41286 12.6663 10.3333V12.3333C12.6663 13.2538 11.9201 14 10.9997 14Z" stroke="#BBBBBB" stroke-width="1.5" stroke-linecap="round" stroke-linejoin="round"/>
</svg>
