<svg width="144" height="36" viewBox="0 0 144 36" fill="none" xmlns="http://www.w3.org/2000/svg">
<rect width="36" height="36" rx="10.8" fill="url(#paint0_linear_3989_25055)"/>
<path d="M8.10156 11.5897L11.3842 9.89941V27.1984L8.10156 24.6167V11.5897Z" fill="white"/>
<path d="M27.8984 11.5897L24.6158 9.89941V27.1984L27.8984 24.6167V11.5897Z" fill="white"/>
<path d="M11.3828 9.89941L18.0002 15.0318V19.1742L11.3828 15.9436V9.89941Z" fill="white"/>
<path d="M24.6172 9.89941L17.9998 15.0318V19.1742L24.6172 15.9436V9.89941Z" fill="white"/>
<path d="M11.3359 17.9756L14.7749 20.4143L15.4001 24.1761L11.3359 21.7893V17.9756Z" fill="white"/>
<path d="M24.6172 17.9756L21.1782 20.4143L20.553 24.1761L24.6172 21.7893V17.9756Z" fill="white"/>
<path d="M59.1116 13.3024C60.734 13.3024 62.021 13.7938 62.9726 14.7766C63.9398 15.7594 64.4234 17.1244 64.4234 18.8716V26.5H60.4454V19.4098C60.4454 18.5674 60.2192 17.92 59.7668 17.4676C59.33 16.9996 58.7216 16.7656 57.9416 16.7656C57.1616 16.7656 56.5454 16.9996 56.093 17.4676C55.6562 17.92 55.4378 18.5674 55.4378 19.4098V26.5H51.4598V19.4098C51.4598 18.5674 51.2336 17.92 50.7812 17.4676C50.3444 16.9996 49.736 16.7656 48.956 16.7656C48.176 16.7656 47.5598 16.9996 47.1074 17.4676C46.6706 17.92 46.4522 18.5674 46.4522 19.4098V26.5H42.4508V13.4428H46.4522V15.0808C46.8578 14.5348 47.3882 14.1058 48.0434 13.7938C48.6986 13.4662 49.4396 13.3024 50.2664 13.3024C51.2492 13.3024 52.1228 13.513 52.8872 13.9342C53.6672 14.3554 54.2756 14.956 54.7124 15.736C55.1648 15.0184 55.781 14.4334 56.561 13.981C57.341 13.5286 58.1912 13.3024 59.1116 13.3024ZM66.6603 19.948C66.6603 18.6064 66.9099 17.4286 67.4091 16.4146C67.9239 15.4006 68.6181 14.6206 69.4917 14.0746C70.3653 13.5286 71.3403 13.2556 72.4167 13.2556C73.3371 13.2556 74.1405 13.4428 74.8269 13.8172C75.5289 14.1916 76.0671 14.683 76.4415 15.2914V13.4428H80.4429V26.5H76.4415V24.6514C76.0515 25.2598 75.5055 25.7512 74.8035 26.1256C74.1171 26.5 73.3137 26.6872 72.3933 26.6872C71.3325 26.6872 70.3653 26.4142 69.4917 25.8682C68.6181 25.3066 67.9239 24.5188 67.4091 23.5048C66.9099 22.4752 66.6603 21.2896 66.6603 19.948ZM76.4415 19.9714C76.4415 18.973 76.1607 18.1852 75.5991 17.608C75.0531 17.0308 74.3823 16.7422 73.5867 16.7422C72.7911 16.7422 72.1125 17.0308 71.5509 17.608C71.0049 18.1696 70.7319 18.9496 70.7319 19.948C70.7319 20.9464 71.0049 21.742 71.5509 22.3348C72.1125 22.912 72.7911 23.2006 73.5867 23.2006C74.3823 23.2006 75.0531 22.912 75.5991 22.3348C76.1607 21.7576 76.4415 20.9698 76.4415 19.9714ZM88.5325 13.2556C89.4529 13.2556 90.2563 13.4428 90.9427 13.8172C91.6447 14.1916 92.1829 14.683 92.5573 15.2914V13.4428H96.5587V26.4766C96.5587 27.6778 96.3169 28.762 95.8333 29.7292C95.3653 30.712 94.6399 31.492 93.6571 32.0692C92.6899 32.6464 91.4809 32.935 90.0301 32.935C88.0957 32.935 86.5279 32.4748 85.3267 31.5544C84.1255 30.6496 83.4391 29.4172 83.2675 27.8572H87.2221C87.3469 28.3564 87.6433 28.7464 88.1113 29.0272C88.5793 29.3236 89.1565 29.4718 89.8429 29.4718C90.6697 29.4718 91.3249 29.23 91.8085 28.7464C92.3077 28.2784 92.5573 27.5218 92.5573 26.4766V24.628C92.1673 25.2364 91.6291 25.7356 90.9427 26.1256C90.2563 26.5 89.4529 26.6872 88.5325 26.6872C87.4561 26.6872 86.4811 26.4142 85.6075 25.8682C84.7339 25.3066 84.0397 24.5188 83.5249 23.5048C83.0257 22.4752 82.7761 21.2896 82.7761 19.948C82.7761 18.6064 83.0257 17.4286 83.5249 16.4146C84.0397 15.4006 84.7339 14.6206 85.6075 14.0746C86.4811 13.5286 87.4561 13.2556 88.5325 13.2556ZM92.5573 19.9714C92.5573 18.973 92.2765 18.1852 91.7149 17.608C91.1689 17.0308 90.4981 16.7422 89.7025 16.7422C88.9069 16.7422 88.2283 17.0308 87.6667 17.608C87.1207 18.1696 86.8477 18.9496 86.8477 19.948C86.8477 20.9464 87.1207 21.742 87.6667 22.3348C88.2283 22.912 88.9069 23.2006 89.7025 23.2006C90.4981 23.2006 91.1689 22.912 91.7149 22.3348C92.2765 21.7576 92.5573 20.9698 92.5573 19.9714ZM107.644 13.3024C109.172 13.3024 110.389 13.8016 111.294 14.8C112.214 15.7828 112.675 17.14 112.675 18.8716V26.5H108.697V19.4098C108.697 18.5362 108.47 17.8576 108.018 17.374C107.566 16.8904 106.957 16.6486 106.193 16.6486C105.428 16.6486 104.82 16.8904 104.368 17.374C103.915 17.8576 103.689 18.5362 103.689 19.4098V26.5H99.6876V13.4428H103.689V15.1744C104.095 14.5972 104.641 14.1448 105.327 13.8172C106.013 13.474 106.786 13.3024 107.644 13.3024ZM128.583 13.4428V26.5H124.581V24.7216C124.176 25.2988 123.622 25.7668 122.92 26.1256C122.233 26.4688 121.469 26.6404 120.627 26.6404C119.628 26.6404 118.747 26.422 117.982 25.9852C117.218 25.5328 116.625 24.8854 116.204 24.043C115.783 23.2006 115.572 22.21 115.572 21.0712V13.4428H119.55V20.533C119.55 21.4066 119.776 22.0852 120.229 22.5688C120.681 23.0524 121.29 23.2942 122.054 23.2942C122.834 23.2942 123.45 23.0524 123.903 22.5688C124.355 22.0852 124.581 21.4066 124.581 20.533V13.4428H128.583ZM137.003 26.6872C135.864 26.6872 134.85 26.4922 133.961 26.1022C133.071 25.7122 132.369 25.1818 131.855 24.511C131.34 23.8246 131.051 23.0602 130.989 22.2178H134.943C134.99 22.6702 135.201 23.0368 135.575 23.3176C135.95 23.5984 136.41 23.7388 136.956 23.7388C137.455 23.7388 137.837 23.6452 138.102 23.458C138.383 23.2552 138.524 22.9978 138.524 22.6858C138.524 22.3114 138.329 22.0384 137.939 21.8668C137.549 21.6796 136.917 21.4768 136.043 21.2584C135.107 21.04 134.327 20.8138 133.703 20.5798C133.079 20.3302 132.541 19.948 132.089 19.4332C131.636 18.9028 131.41 18.193 131.41 17.3038C131.41 16.555 131.613 15.8764 132.018 15.268C132.44 14.644 133.048 14.1526 133.844 13.7938C134.655 13.435 135.614 13.2556 136.722 13.2556C138.36 13.2556 139.647 13.6612 140.583 14.4724C141.534 15.2836 142.08 16.36 142.221 17.7016H138.524C138.461 17.2492 138.258 16.8904 137.915 16.6252C137.588 16.36 137.151 16.2274 136.605 16.2274C136.137 16.2274 135.778 16.321 135.528 16.5082C135.279 16.6798 135.154 16.9216 135.154 17.2336C135.154 17.608 135.349 17.8888 135.739 18.076C136.145 18.2632 136.769 18.4504 137.611 18.6376C138.578 18.8872 139.366 19.1368 139.974 19.3864C140.583 19.6204 141.113 20.0104 141.566 20.5564C142.034 21.0868 142.275 21.8044 142.291 22.7092C142.291 23.4736 142.073 24.16 141.636 24.7684C141.215 25.3612 140.598 25.8292 139.787 26.1724C138.992 26.5156 138.063 26.6872 137.003 26.6872Z" fill="black"/>
<defs>
<linearGradient id="paint0_linear_3989_25055" x1="18" y1="0" x2="18" y2="36" gradientUnits="userSpaceOnUse">
<stop/>
<stop offset="1" stop-color="#323232"/>
</linearGradient>
</defs>
</svg>
